<svg width="110" height="110" viewBox="0 0 110 110" fill="none" xmlns="http://www.w3.org/2000/svg">
<path d="M56.5 3L89.842 22.25V60.75L56.5 80L23.158 60.75V22.25L56.5 3Z" fill="#213E7F"/>
<path d="M56.5 3L89.842 22.25L78.5 29V52.5L89.842 60.75L56.5 80L23.158 60.75L34.5 52.5V29L23.158 22.25L56.5 3Z" fill="#3964AA"/>
<path d="M56.5 3L89.842 22.25L78.5 29V52.5L89.842 60.75L56.5 80L23.158 60.75L34.5 52.5L56.5 66.5V16V3Z" fill="#6989C2"/>
<path d="M78.5 54V52.5L89.842 60.75L56.5 80V67L78.5 54Z" fill="#3964AA"/>
<path d="M45 40V73.5L34.5 67.5V40H45Z" fill="white"/>
<path d="M56.5 16L78.5836 28.75V54.25L56.5 67L34.4164 54.25V28.75L56.5 16Z" fill="white"/>
<path d="M56.5 30L66.4593 35.75V47.25L56.5 53L46.5407 47.25V35.75L56.5 30Z" fill="#F26821"/>
<path d="M20.076 84.576C21.5693 84.576 22.6573 84.8693 23.34 85.456C24.0227 86.0427 24.364 86.8693 24.364 87.936C24.364 88.4053 24.284 88.8587 24.124 89.296C23.9747 89.7227 23.724 90.1067 23.372 90.448C23.02 90.7893 22.5507 91.0613 21.964 91.264C21.3773 91.456 20.6573 91.552 19.804 91.552H18.492V96H17.052V84.576H20.076ZM19.948 85.808H18.492V90.32H19.644C20.3693 90.32 20.972 90.2453 21.452 90.096C21.932 89.936 22.2893 89.6853 22.524 89.344C22.7587 89.0027 22.876 88.5547 22.876 88C22.876 87.264 22.6413 86.7147 22.172 86.352C21.7027 85.9893 20.9613 85.808 19.948 85.808ZM33.1235 96H26.7395V84.576H33.1235V85.84H28.1795V89.408H32.8355V90.656H28.1795V94.736H33.1235V96ZM42.7981 96L41.4221 92.464H36.8941L35.5341 96H34.0781L38.5421 84.528H39.8381L44.2861 96H42.7981ZM39.7101 87.728C39.6781 87.6427 39.6248 87.488 39.5501 87.264C39.4755 87.04 39.4008 86.8107 39.3261 86.576C39.2621 86.3307 39.2088 86.144 39.1661 86.016C39.1128 86.2293 39.0541 86.448 38.9901 86.672C38.9368 86.8853 38.8781 87.0827 38.8141 87.264C38.7608 87.4453 38.7128 87.6 38.6701 87.728L37.3741 91.184H40.9901L39.7101 87.728ZM54.2009 96H52.5049L48.4569 90.544L47.2889 91.568V96H45.8489V84.576H47.2889V90.208C47.6089 89.8453 47.9342 89.4827 48.2649 89.12C48.5955 88.7573 48.9262 88.3947 49.2569 88.032L52.3449 84.576H54.0249L49.4969 89.552L54.2009 96ZM68.8751 84.576L65.8351 96H64.3791L62.1551 88.512C62.0911 88.288 62.0271 88.0587 61.9631 87.824C61.8991 87.5893 61.8405 87.3653 61.7871 87.152C61.7338 86.9387 61.6858 86.7573 61.6431 86.608C61.6111 86.448 61.5898 86.3307 61.5791 86.256C61.5685 86.3307 61.5471 86.448 61.5151 86.608C61.4938 86.7573 61.4565 86.9387 61.4031 87.152C61.3498 87.3653 61.2911 87.5947 61.2271 87.84C61.1738 88.0747 61.1098 88.3147 61.0351 88.56L58.8751 96H57.4191L54.3951 84.576H55.8991L57.6751 91.552C57.7391 91.7973 57.7978 92.0427 57.8511 92.288C57.9045 92.5227 57.9525 92.7573 57.9951 92.992C58.0485 93.216 58.0911 93.4347 58.1231 93.648C58.1551 93.8613 58.1871 94.0693 58.2191 94.272C58.2511 94.0587 58.2831 93.84 58.3151 93.616C58.3578 93.392 58.4058 93.1627 58.4591 92.928C58.5125 92.6827 58.5711 92.4373 58.6351 92.192C58.6991 91.9467 58.7631 91.7067 58.8271 91.472L60.8431 84.576H62.3311L64.4271 91.52C64.5018 91.7653 64.5711 92.016 64.6351 92.272C64.6991 92.5173 64.7578 92.7573 64.8111 92.992C64.8645 93.2267 64.9071 93.456 64.9391 93.68C64.9818 93.8933 65.0191 94.0907 65.0511 94.272C65.0831 94.0053 65.1258 93.728 65.1791 93.44C65.2325 93.1413 65.2965 92.832 65.3711 92.512C65.4458 92.192 65.5258 91.8667 65.6111 91.536L67.3711 84.576H68.8751ZM77.1575 96L75.7815 92.464H71.2535L69.8935 96H68.4375L72.9015 84.528H74.1975L78.6455 96H77.1575ZM74.0695 87.728C74.0375 87.6427 73.9842 87.488 73.9095 87.264C73.8348 87.04 73.7602 86.8107 73.6855 86.576C73.6215 86.3307 73.5682 86.144 73.5255 86.016C73.4722 86.2293 73.4135 86.448 73.3495 86.672C73.2962 86.8853 73.2375 87.0827 73.1735 87.264C73.1202 87.4453 73.0722 87.6 73.0295 87.728L71.7335 91.184H75.3495L74.0695 87.728ZM83.3602 84.576C84.3096 84.576 85.0883 84.6987 85.6963 84.944C86.3149 85.1787 86.7736 85.536 87.0723 86.016C87.3709 86.496 87.5203 87.0987 87.5203 87.824C87.5203 88.432 87.4083 88.9387 87.1843 89.344C86.9603 89.7493 86.6723 90.0747 86.3203 90.32C85.9789 90.5547 85.6163 90.7413 85.2323 90.88L88.3683 96H86.6883L83.9203 91.28H81.6483V96H80.2083V84.576H83.3602ZM83.2803 85.824H81.6483V90.064H83.3602C83.9789 90.064 84.4856 89.984 84.8803 89.824C85.2749 89.6533 85.5629 89.408 85.7443 89.088C85.9363 88.768 86.0323 88.368 86.0323 87.888C86.0323 87.3867 85.9309 86.9867 85.7283 86.688C85.5363 86.3893 85.2376 86.1707 84.8323 86.032C84.4269 85.8933 83.9096 85.824 83.2803 85.824ZM96.5454 96H90.1614V84.576H96.5454V85.84H91.6014V89.408H96.2574V90.656H91.6014V94.736H96.5454V96Z" fill="#F26821"/>
<path d="M32.27 104L31.754 102.674H30.056L29.546 104H29L30.674 99.698H31.16L32.828 104H32.27ZM31.112 100.898C31.1 100.866 31.08 100.808 31.052 100.724C31.024 100.64 30.996 100.554 30.968 100.466C30.944 100.374 30.924 100.304 30.908 100.256C30.888 100.336 30.866 100.418 30.842 100.502C30.822 100.582 30.8 100.656 30.776 100.724C30.756 100.792 30.738 100.85 30.722 100.898L30.236 102.194H31.592L31.112 100.898ZM39.3928 100.13C39.1648 100.13 38.9588 100.17 38.7748 100.25C38.5908 100.326 38.4348 100.44 38.3068 100.592C38.1788 100.74 38.0808 100.922 38.0128 101.138C37.9448 101.35 37.9108 101.59 37.9108 101.858C37.9108 102.21 37.9648 102.516 38.0728 102.776C38.1848 103.036 38.3488 103.236 38.5648 103.376C38.7848 103.516 39.0588 103.586 39.3868 103.586C39.5748 103.586 39.7528 103.57 39.9208 103.538C40.0888 103.506 40.2528 103.466 40.4128 103.418V103.886C40.2528 103.946 40.0868 103.99 39.9148 104.018C39.7468 104.046 39.5448 104.06 39.3088 104.06C38.8728 104.06 38.5088 103.97 38.2168 103.79C37.9248 103.61 37.7048 103.354 37.5568 103.022C37.4128 102.69 37.3408 102.3 37.3408 101.852C37.3408 101.528 37.3848 101.232 37.4728 100.964C37.5648 100.696 37.6968 100.464 37.8688 100.268C38.0448 100.072 38.2608 99.922 38.5168 99.818C38.7728 99.71 39.0668 99.656 39.3988 99.656C39.6188 99.656 39.8308 99.678 40.0348 99.722C40.2388 99.766 40.4208 99.828 40.5808 99.908L40.3648 100.364C40.2328 100.304 40.0848 100.25 39.9208 100.202C39.7608 100.154 39.5848 100.13 39.3928 100.13ZM48.2959 104L47.7799 102.674H46.0819L45.5719 104H45.0259L46.6999 99.698H47.1859L48.8539 104H48.2959ZM47.1379 100.898C47.1259 100.866 47.1059 100.808 47.0779 100.724C47.0499 100.64 47.0219 100.554 46.9939 100.466C46.9699 100.374 46.9499 100.304 46.9339 100.256C46.9139 100.336 46.8919 100.418 46.8679 100.502C46.8479 100.582 46.8259 100.656 46.8019 100.724C46.7819 100.792 46.7639 100.85 46.7479 100.898L46.2619 102.194H47.6179L47.1379 100.898ZM57.1319 101.816C57.1319 102.296 57.0419 102.698 56.8619 103.022C56.6859 103.346 56.4319 103.59 56.0999 103.754C55.7679 103.918 55.3659 104 54.8939 104H53.6999V99.716H55.0199C55.4519 99.716 55.8259 99.796 56.1419 99.956C56.4579 100.116 56.7019 100.352 56.8739 100.664C57.0459 100.972 57.1319 101.356 57.1319 101.816ZM56.5619 101.834C56.5619 101.454 56.4979 101.142 56.3699 100.898C56.2459 100.654 56.0619 100.474 55.8179 100.358C55.5779 100.238 55.2859 100.178 54.9419 100.178H54.2399V103.538H54.8219C55.4019 103.538 55.8359 103.396 56.1239 103.112C56.4159 102.824 56.5619 102.398 56.5619 101.834ZM64.7367 104H62.3427V99.716H64.7367V100.19H62.8827V101.528H64.6287V101.996H62.8827V103.526H64.7367V104ZM71.8267 104L70.4167 100.244H70.3927C70.4007 100.324 70.4067 100.426 70.4107 100.55C70.4187 100.674 70.4247 100.81 70.4287 100.958C70.4327 101.102 70.4347 101.25 70.4347 101.402V104H69.9367V99.716H70.7347L72.0547 103.226H72.0787L73.4227 99.716H74.2147V104H73.6807V101.366C73.6807 101.226 73.6827 101.088 73.6867 100.952C73.6907 100.812 73.6967 100.682 73.7047 100.562C73.7127 100.438 73.7187 100.334 73.7227 100.25H73.6987L72.2707 104H71.8267ZM80.756 101.822L81.872 99.716H82.454L81.026 102.338V104H80.486V102.362L79.058 99.716H79.646L80.756 101.822Z" fill="#3964AA"/>
</svg>
